<?xml version="1.0" encoding="UTF-8" standalone="no"?>
<!-- Created with Inkscape (http://www.inkscape.org/) -->
<svg
   xmlns:dc="http://purl.org/dc/elements/1.1/"
   xmlns:cc="http://web.resource.org/cc/"
   xmlns:rdf="http://www.w3.org/1999/02/22-rdf-syntax-ns#"
   xmlns:svg="http://www.w3.org/2000/svg"
   xmlns="http://www.w3.org/2000/svg"
   xmlns:xlink="http://www.w3.org/1999/xlink"
   xmlns:sodipodi="http://sodipodi.sourceforge.net/DTD/sodipodi-0.dtd"
   xmlns:inkscape="http://www.inkscape.org/namespaces/inkscape"
   width="400"
   height="299"
   id="svg2"
   sodipodi:version="0.32"
   inkscape:version="0.45.1"
   version="1.0"
   inkscape:output_extension="org.inkscape.output.svg.inkscape">
  <g
     inkscape:label="Layer 1"
     inkscape:groupmode="layer"
     id="layer1"
     transform="translate(-557.26351,96.061279)">
    <path
       id="path10304"
       d="M 659.4573,-96.061279 C 701.18332,-96.061279 736.98326,-79.231006 753.21782,-66.767591 C 756.07208,-64.576392 757.74008,-64.835399 759.93646,-66.296198 C 770.74741,-73.527673 803.34085,-95.786732 848.22158,-95.786732 C 902.40583,-95.786732 957.26351,-68.388975 957.26351,-8.6982289 C 957.26351,27.837294 932.36776,65.96312 889.64197,91.977779 C 878.85692,98.587637 866.19666,104.23399 852.63506,109.09296 C 844.89593,111.89542 841.48222,108.69927 849.60985,102.66441 C 869.62591,87.781866 920.90929,48.630373 920.90929,-0.38410521 C 920.90929,-33.682041 890.06156,-66.959256 836.83563,-66.959256 C 796.22852,-66.959256 766.20961,-44.182183 760.58398,-40.35406 C 757.69346,-38.380427 755.80789,-38.701596 753.35768,-40.861714 C 738.64609,-53.946746 708.75151,-68.010824 674.07047,-68.010824 C 631.75909,-68.010824 593.61773,-44.741638 593.61773,-3.3419648 C 593.61773,72.106765 724.58719,103.11508 756.36735,103.11508 C 764.26188,103.11508 834.3906,78.664821 834.3906,19.740736 C 834.3906,-1.083424 821.46098,-14.800433 804.3717,-14.800433 C 782.06084,-14.800433 769.21409,3.9620317 760.51146,14.420733 C 758.53782,16.803597 755.48154,17.870706 753.58561,14.405193 C 745.87756,0.37219513 730.76192,-15.209664 710.15532,-15.209664 C 691.85907,-15.209664 680.91862,-1.9433272 680.91862,12.649125 C 680.91862,47.01935 728.72094,68.371884 751.04734,76.064391 C 755.36758,77.540731 755.3106,82.161415 749.26019,81.57606 C 717.50594,78.556038 638.63832,54.566813 638.63832,3.3611355 C 638.63832,-17.773833 656.84651,-41.281305 693.15411,-41.281305 C 717.59918,-41.281305 740.75959,-27.859564 754.39889,-11.438523 C 755.73019,-9.8430397 757.94211,-10.070966 759.12318,-11.277938 C 760.32497,-12.44865 788.76394,-40.281538 822.74565,-40.281538 C 847.04051,-40.281538 873.31417,-23.705093 873.31417,11.266028 C 873.31417,47.38714 841.70496,83.580773 815.05314,100.15722 C 787.71237,117.13254 761.64073,124.77842 755.19145,124.27077 C 650.11233,115.6821 557.26351,54.877621 557.26351,-16.784426 C 557.26351,-52.071536 584.14325,-96.061279 659.4573,-96.061279"
       style="fill:#ef3e33;fill-opacity:1;fill-rule:nonzero;stroke:none" />
    <path
       id="path10306"
       d="M 650.36615,182.77526 L 637.68517,182.77526 L 644.06711,168.96501 L 650.36615,182.77526 z M 669.06128,197.29519 L 644.20179,148.28589 L 619.13509,197.29519 L 628.8375,202.0402 L 633.15255,192.48284 L 655.11116,192.48284 L 659.4314,201.90034"
       style="fill:#ef3e33;fill-opacity:1;fill-rule:nonzero;stroke:none" />
    <path
       id="path10308"
       d="M 679.28687,200.27377 L 679.28687,150.26989 L 690.11854,150.26989 L 690.11854,189.78917 L 706.62765,189.78917 L 706.62765,200.27377"
       style="fill:#ef3e33;fill-opacity:1;fill-rule:nonzero;stroke:none" />
    <path
       id="path10310"
       d="M 737.71884,200.83841 C 723.4113,200.83841 713.92128,189.57678 713.92128,175.97892 C 713.92128,161.60403 723.76873,149.56021 738.28348,149.56021 C 745.43207,149.56021 751.45657,152.74599 756.20158,157.84843 L 748.47799,165.71188 C 745.7895,162.59344 742.46385,160.60945 738.28348,160.60945 C 730.91732,160.60945 725.39529,166.63395 725.39529,175.13456 C 725.39529,183.56264 730.00044,190.07408 738.42852,190.07408 C 742.10642,190.07408 745.50459,189.15719 748.19827,187.66531 L 748.19827,180.37168 L 740.75959,180.37168 L 740.75959,170.6641 L 758.67769,170.6641 L 758.67769,194.67922 C 753.29552,198.07739 746.00189,200.83841 737.71884,200.83841"
       style="fill:#ef3e33;fill-opacity:1;fill-rule:nonzero;stroke:none" />
    <path
       id="path10312"
       d="M 773.83478,200.27377 L 784.66852,200.27377 L 784.66852,150.27196 L 773.83478,150.27196 L 773.83478,200.27377 z "
       style="fill:#ef3e33;fill-opacity:1;fill-rule:nonzero;stroke:none" />
    <path
       id="path10314"
       d="M 829.68704,175.2019 C 829.68704,184.1221 823.17042,189.78917 815.38467,189.78917 L 811.05926,189.78917 L 811.05926,160.75449 L 815.4572,160.75449 C 819.48734,160.75449 823.31029,161.88894 825.93144,164.64995 C 828.27286,167.12606 829.68704,170.73662 829.68704,175.2019 M 841.08852,175.34176 C 841.08852,167.19858 838.46737,160.89435 834.0798,156.71398 C 829.54717,152.39374 823.38281,150.26989 816.22904,150.26989 L 800.22759,150.26989 L 800.22759,200.27377 L 816.22904,200.27377 C 829.68704,200.27377 841.08852,189.78917 841.08852,175.34176"
       style="fill:#ef3e33;fill-opacity:1;fill-rule:nonzero;stroke:none" />
    <path
       id="path10316"
       d="M 876.6968,182.77526 L 864.021,182.77526 L 870.39257,168.96501 L 876.6968,182.77526 z M 895.39193,197.29519 L 870.53762,148.28589 L 845.47092,197.29519 L 855.16814,202.0402 L 859.49356,192.48284 L 881.44181,192.48284 L 885.76723,201.90034"
       style="fill:#ef3e33;fill-opacity:1;fill-rule:nonzero;stroke:none" />
    <path
       id="path10318"
       d="M 897.71781,157.01443 C 897.71781,154.60048 898.57253,152.54397 900.2768,150.84488 C 901.98106,149.14062 904.04276,148.28589 906.45152,148.28589 C 908.87065,148.28589 910.92716,149.14062 912.62625,150.84488 C 914.33052,152.54397 915.18006,154.60048 915.18006,157.01443 C 915.18006,159.42319 914.33052,161.48489 912.62625,163.18915 C 910.92716,164.8986 908.87065,165.75332 906.45152,165.75332 C 904.04276,165.75332 901.98106,164.8986 900.2768,163.18915 C 898.57253,161.48489 897.71781,159.42319 897.71781,157.01443 M 899.83649,157.01443 C 899.83649,158.83784 900.484,160.39188 901.77904,161.69209 C 903.07407,162.98713 904.63329,163.63465 906.45152,163.63465 C 908.28011,163.63465 909.83933,162.98713 911.12919,161.69727 C 912.41904,160.40742 913.06138,158.84302 913.06138,157.01443 C 913.06138,155.19102 912.41904,153.63698 911.12919,152.34194 C 909.83933,151.04691 908.28011,150.40457 906.45152,150.40457 C 904.62293,150.40457 903.06371,151.04691 901.76868,152.34194 C 900.47882,153.63698 899.83649,155.19102 899.83649,157.01443 M 908.43034,161.8734 L 906.07855,157.90023 L 905.26009,157.90023 L 905.26009,161.8734 L 903.22948,161.8734 L 903.22948,151.94825 L 905.96977,151.94825 C 908.43552,151.94825 909.66839,152.91176 909.66839,154.84395 C 909.66839,156.03538 909.11929,156.92637 908.01593,157.50654 L 910.6837,161.8734 L 908.43034,161.8734 z M 905.97495,153.75612 L 905.26009,153.75612 L 905.26009,156.18043 C 906.03193,156.18043 906.55513,156.16489 906.83485,156.12344 L 907.44093,155.78156 L 907.63778,154.93719 C 907.63778,154.14981 907.0835,153.75612 905.97495,153.75612"
       style="fill:#ef3e33;fill-opacity:1;fill-rule:nonzero;stroke:none" />
  </g>
</svg>
